<?xml version="1.0" encoding="utf-8"?>
<!-- Generator: Adobe Illustrator 18.0.0, SVG Export Plug-In . SVG Version: 6.00 Build 0)  -->
<!DOCTYPE svg PUBLIC "-//W3C//DTD SVG 1.1//EN" "http://www.w3.org/Graphics/SVG/1.1/DTD/svg11.dtd">
<svg version="1.1"
	 id="svg2" xmlns:dc="http://purl.org/dc/elements/1.1/" xmlns:cc="http://creativecommons.org/ns#" xmlns:rdf="http://www.w3.org/1999/02/22-rdf-syntax-ns#" xmlns:svg="http://www.w3.org/2000/svg"
	 xmlns="http://www.w3.org/2000/svg" xmlns:xlink="http://www.w3.org/1999/xlink" x="0px" y="0px" viewBox="-7 129.4 761 167"
	 enable-background="new -7 129.4 761 167" xml:space="preserve">
<g id="layer1" transform="translate(-78.571428,-50.93366)">
	<path id="path3761" fill="#FF3285" d="M215.6,262.1c0,36.3-29.4,65.8-65.8,65.8s-65.8-29.4-65.8-65.8s29.4-65.8,65.8-65.8
		S215.6,225.8,215.6,262.1z"/>
	<g id="text2985">
		<path id="path3764" fill="#FFFFFF" d="M135.4,214.8c0.9,0,1.6,0.3,2.2,1c0.6,0.6,0.9,1.4,0.9,2.2c0,0.9-0.3,1.6-0.9,2.2
			c-0.6,0.6-1.4,0.9-2.2,0.9c-4.1,0-6.9,0.9-8.4,2.8c-1.6,1.8-2.4,5.2-2.4,10.4v6.9h9.1c0.9,0,1.6,0.3,2.2,0.9c0.7,0.6,1,1.4,1,2.2
			c0,0.9-0.3,1.6-1,2.4c-0.6,0.6-1.4,0.9-2.2,0.9h-9.1V304c0,0.9-0.3,1.6-0.9,2.2c-0.6,0.6-1.4,0.9-2.2,0.9s-1.6-0.3-2.4-0.9
			c-0.6-0.6-0.9-1.4-0.9-2.2v-56.2h-8.6c-0.9,0-1.6-0.3-2.2-0.9c-0.6-0.7-0.9-1.5-0.9-2.4s0.3-1.6,0.9-2.2c0.6-0.6,1.4-0.9,2.2-0.9
			h8.6v-6.9c0.2-6.9,1.6-11.9,4.2-15C125.2,216.3,129.5,214.8,135.4,214.8"/>
		<path id="path3766" fill="#FFFFFF" d="M183.1,214.8c0.9,0,1.6,0.3,2.2,1c0.6,0.6,0.9,1.4,0.9,2.2c0,0.9-0.3,1.6-0.9,2.2
			c-0.6,0.6-1.4,0.9-2.2,0.9c-4.1,0-6.9,0.9-8.4,2.8c-1.6,1.8-2.4,5.2-2.4,10.4v6.9h9.1c0.9,0,1.6,0.3,2.2,0.9c0.7,0.6,1,1.4,1,2.2
			c0,0.9-0.3,1.6-1,2.4c-0.6,0.6-1.4,0.9-2.2,0.9h-9.1V304c0,0.9-0.3,1.6-0.9,2.2c-0.6,0.6-1.4,0.9-2.2,0.9c-0.9,0-1.6-0.3-2.4-0.9
			c-0.6-0.6-0.9-1.4-0.9-2.2v-56.2h-8.6c-0.9,0-1.6-0.3-2.2-0.9c-0.6-0.7-0.9-1.5-0.9-2.4s0.3-1.6,0.9-2.2c0.6-0.6,1.4-0.9,2.2-0.9
			h8.6v-6.9c0.2-6.9,1.6-11.9,4.2-15C172.9,216.3,177.2,214.8,183.1,214.8"/>
	</g>
</g>
<g>
	<path fill="#FFFFFF" d="M182.4,174.1c0.6,0,1.2,0.2,1.6,0.7c0.4,0.5,0.7,1,0.7,1.7c0,0.6-0.2,1.2-0.7,1.6c-0.4,0.4-1,0.7-1.6,0.7
		c-2.9,0-5,0.7-6.1,2c-1.2,1.3-1.7,3.9-1.7,7.6v5h6.6c0.6,0,1.2,0.2,1.7,0.7c0.5,0.4,0.7,1,0.7,1.6c0,0.6-0.2,1.2-0.7,1.7
		s-1,0.7-1.7,0.7h-6.6V239c0,0.6-0.2,1.2-0.7,1.6c-0.4,0.4-1,0.7-1.6,0.7c-0.6,0-1.2-0.2-1.7-0.7c-0.5-0.4-0.7-1-0.7-1.6v-40.9h-6.2
		c-0.6,0-1.2-0.2-1.6-0.7c-0.4-0.5-0.7-1-0.7-1.7c0-0.6,0.2-1.2,0.7-1.6c0.4-0.4,1-0.7,1.6-0.7h6.2v-5c0.1-5,1.2-8.6,3.1-10.9
		C175,175.2,178.1,174.1,182.4,174.1z"/>
	<path fill="#FFFFFF" d="M240.9,216.1v0.4c0,0.6-0.2,1.2-0.7,1.5c-0.4,0.4-1,0.6-1.6,0.6H200c0.3,5.1,2.1,9.4,5.7,12.9
		c3.5,3.5,7.7,5.2,12.6,5.2c3.1,0,6-0.8,8.7-2.3c2.7-1.5,4.8-3.6,6.4-6.2c0.8-1.3,1.8-1.5,3.1-0.8c1.3,0.9,1.5,2,0.8,3.3
		c-2,3.3-4.8,5.9-8.1,7.8c-3.4,1.9-7,2.9-10.9,2.9c-6.3,0-11.7-2.3-16.2-6.9c-4.4-4.6-6.7-10.1-6.7-16.6c0-6.5,2.2-12,6.7-16.7
		c4.4-4.6,9.8-6.9,15.9-6.9c6.2,0,11.4,2.1,15.7,6.3C238,204.7,240.4,209.9,240.9,216.1z M229.7,203.1c-3.3-2.9-7.2-4.3-11.6-4.3
		c-4.4,0-8.2,1.4-11.6,4.3c-3.3,2.8-5.4,6.5-6.3,11h35.6C235.1,209.6,233.1,206,229.7,203.1z"/>
	<path fill="#FFFFFF" d="M259.7,241.2h-0.6c-1-0.1-1.6-0.7-1.9-1.7v-43c0-0.6,0.2-1.2,0.7-1.6c0.4-0.4,1-0.6,1.6-0.6
		c0.6,0,1.1,0.2,1.6,0.6c0.4,0.4,0.7,0.9,0.7,1.6v4.5c3.8-4.5,8.6-6.7,14.5-6.7c3.6,0,6.9,0.9,9.8,2.7c3,1.8,5.3,4.2,7,7.2
		c1.7-3,4.1-5.4,7.1-7.2c3-1.8,6.3-2.7,9.8-2.7c5.2,0,9.7,1.9,13.5,5.6c3.7,3.7,5.6,8.2,5.6,13.5V239c0,0.6-0.2,1.1-0.7,1.5
		c-0.4,0.4-1,0.7-1.6,0.7c-0.6,0-1.2-0.2-1.6-0.7c-0.4-0.4-0.6-1-0.6-1.5v-25.6c-0.1-4-1.6-7.5-4.4-10.3c-2.8-2.8-6.2-4.3-10.2-4.3
		c-4,0-7.4,1.4-10.2,4.3c-2.8,2.9-4.3,6.3-4.3,10.3v25.9l-0.1,0.2v0.2c-0.1,0.4-0.4,0.8-1,1.1c-0.5,0.3-1,0.4-1.3,0.4h-0.5l-0.8-0.4
		c-0.1,0-0.2-0.1-0.4-0.4c-0.2-0.3-0.4-0.4-0.4-0.5c0-0.1-0.1-0.1-0.1-0.2c0-0.1-0.1-0.2-0.1-0.2v-26.1c0-4-1.4-7.5-4.2-10.3
		c-2.8-2.8-6.2-4.3-10.3-4.3c-4,0-7.5,1.4-10.3,4.3c-2.8,2.8-4.2,6.3-4.2,10.3V239c0,0.8-0.4,1.4-1.1,1.8
		C260.4,241.1,260.1,241.2,259.7,241.2z"/>
	<path fill="#FFFFFF" d="M351,241.2h-0.6c-1-0.1-1.6-0.7-1.9-1.7v-43c0-0.6,0.2-1.2,0.7-1.6c0.4-0.4,1-0.6,1.6-0.6
		c0.6,0,1.1,0.2,1.6,0.6c0.4,0.4,0.7,0.9,0.7,1.6v4.5c3.8-4.5,8.6-6.7,14.5-6.7c3.6,0,6.9,0.9,9.8,2.7c3,1.8,5.3,4.2,7,7.2
		c1.7-3,4.1-5.4,7.1-7.2c3-1.8,6.3-2.7,9.8-2.7c5.2,0,9.7,1.9,13.5,5.6c3.7,3.7,5.6,8.2,5.6,13.5V239c0,0.6-0.2,1.1-0.7,1.5
		c-0.4,0.4-1,0.7-1.6,0.7c-0.6,0-1.2-0.2-1.6-0.7c-0.4-0.4-0.6-1-0.6-1.5v-25.6c-0.1-4-1.6-7.5-4.4-10.3c-2.8-2.8-6.2-4.3-10.2-4.3
		c-4,0-7.4,1.4-10.2,4.3c-2.8,2.9-4.3,6.3-4.3,10.3v25.9l-0.1,0.2v0.2c-0.1,0.4-0.4,0.8-1,1.1c-0.5,0.3-1,0.4-1.3,0.4h-0.5l-0.8-0.4
		c-0.1,0-0.2-0.1-0.4-0.4c-0.2-0.3-0.4-0.4-0.4-0.5c0-0.1-0.1-0.1-0.1-0.2c0-0.1-0.1-0.2-0.1-0.2v-26.1c0-4-1.4-7.5-4.2-10.3
		c-2.8-2.8-6.2-4.3-10.3-4.3c-4,0-7.5,1.4-10.3,4.3c-2.8,2.8-4.2,6.3-4.2,10.3V239c0,0.8-0.4,1.4-1.1,1.8
		C351.7,241.1,351.4,241.2,351,241.2z"/>
	<path fill="#FFFFFF" d="M481.9,216.1v0.4c0,0.6-0.2,1.2-0.7,1.5c-0.4,0.4-1,0.6-1.6,0.6H441c0.3,5.1,2.1,9.4,5.7,12.9
		c3.5,3.5,7.7,5.2,12.6,5.2c3.1,0,6-0.8,8.7-2.3c2.7-1.5,4.8-3.6,6.4-6.2c0.8-1.3,1.8-1.5,3.1-0.8c1.3,0.9,1.5,2,0.8,3.3
		c-2,3.3-4.8,5.9-8.1,7.8c-3.4,1.9-7,2.9-10.9,2.9c-6.3,0-11.7-2.3-16.2-6.9c-4.4-4.6-6.7-10.1-6.7-16.6c0-6.5,2.2-12,6.7-16.7
		c4.4-4.6,9.8-6.9,15.9-6.9c6.2,0,11.4,2.1,15.7,6.3C479,204.7,481.4,209.9,481.9,216.1z M470.8,203.1c-3.3-2.9-7.2-4.3-11.6-4.3
		c-4.4,0-8.2,1.4-11.6,4.3c-3.3,2.8-5.4,6.5-6.3,11h35.6C476.2,209.6,474.1,206,470.8,203.1z"/>
	<path fill="#FFFFFF" d="M545.5,174.1c0.6,0,1.2,0.2,1.6,0.7c0.4,0.5,0.7,1,0.7,1.7c0,0.6-0.2,1.2-0.7,1.6c-0.4,0.4-1,0.7-1.6,0.7
		c-2.9,0-5,0.7-6.1,2c-1.2,1.3-1.7,3.9-1.7,7.6v5h6.6c0.6,0,1.2,0.2,1.7,0.7c0.5,0.4,0.7,1,0.7,1.6c0,0.6-0.2,1.2-0.7,1.7
		s-1,0.7-1.7,0.7h-6.6V239c0,0.6-0.2,1.2-0.7,1.6c-0.4,0.4-1,0.7-1.6,0.7s-1.2-0.2-1.7-0.7c-0.5-0.4-0.7-1-0.7-1.6v-40.9h-6.2
		c-0.6,0-1.2-0.2-1.6-0.7c-0.4-0.5-0.7-1-0.7-1.7c0-0.6,0.2-1.2,0.7-1.6c0.4-0.4,1-0.7,1.6-0.7h6.2v-5c0.1-5,1.2-8.6,3.1-10.9
		C538,175.2,541.2,174.1,545.5,174.1z"/>
	<path fill="#FFFFFF" d="M566.1,234.3c-4.4-4.6-6.5-10.2-6.5-16.6c0-6.4,2.2-11.9,6.5-16.6c4.4-4.6,9.6-7,15.7-7
		c6.1,0,11.4,2.3,15.7,7c4.4,4.6,6.5,10.2,6.5,16.6c0,6.4-2.2,11.9-6.5,16.6c-4.4,4.6-9.6,7-15.7,7
		C575.7,241.2,570.5,238.9,566.1,234.3z M581.9,198.7c-4.8,0-8.9,1.9-12.4,5.6c-3.5,3.7-5.2,8.2-5.2,13.4c0,5.2,1.7,9.7,5.2,13.4
		s7.6,5.6,12.4,5.6s8.9-1.9,12.4-5.6c3.5-3.7,5.2-8.2,5.2-13.4c0-5.2-1.7-9.7-5.2-13.4C590.8,200.5,586.7,198.7,581.9,198.7z"/>
	<path fill="#FFFFFF" d="M626.1,234.3c-4.4-4.6-6.5-10.2-6.5-16.6c0-6.4,2.2-11.9,6.5-16.6c4.4-4.6,9.6-7,15.7-7
		c6.1,0,11.4,2.3,15.7,7c4.4,4.6,6.5,10.2,6.5,16.6c0,6.4-2.2,11.9-6.5,16.6c-4.4,4.6-9.6,7-15.7,7
		C635.7,241.2,630.5,238.9,626.1,234.3z M641.9,198.7c-4.8,0-8.9,1.9-12.4,5.6c-3.5,3.7-5.2,8.2-5.2,13.4c0,5.2,1.7,9.7,5.2,13.4
		s7.6,5.6,12.4,5.6s8.9-1.9,12.4-5.6c3.5-3.7,5.2-8.2,5.2-13.4c0-5.2-1.7-9.7-5.2-13.4C650.8,200.5,646.7,198.7,641.9,198.7z"/>
	<path fill="#FFFFFF" d="M719.4,238.9v-6.8c-2.1,2.8-4.7,5-7.9,6.7c-3.1,1.6-6.5,2.4-10.2,2.4c-6.3,0-11.7-2.3-16.1-6.9
		c-4.4-4.6-6.6-10.1-6.6-16.6c0-6.5,2.2-12,6.6-16.7s9.8-6.9,16.1-6.9c3.6,0,7,0.8,10.2,2.5c3.1,1.7,5.8,3.9,7.9,6.7v-27.1
		c0-0.6,0.2-1.2,0.7-1.6c0.5-0.4,1-0.7,1.7-0.7c0.6,0,1.2,0.2,1.6,0.7c0.4,0.4,0.7,1,0.7,1.6v62.6c0,0.6-0.2,1.2-0.7,1.6
		c-0.4,0.4-1,0.7-1.6,0.7c-0.6,0-1.2-0.2-1.7-0.7C719.7,240.1,719.4,239.6,719.4,238.9z M683.3,217.7c0,5.2,1.8,9.6,5.3,13.3
		c3.6,3.6,7.8,5.5,12.7,5.5c4.9,0,9.1-1.7,12.6-5.2c3.5-3.5,5.3-7.7,5.5-12.7V217c-0.2-5.1-2-9.3-5.5-12.9
		c-3.5-3.5-7.7-5.3-12.6-5.3c-4.9,0-9.1,1.8-12.7,5.5C685.1,208.1,683.3,212.5,683.3,217.7z"/>
</g>
</svg>
